# xmcd
#
# Track frame offsets: 
#        150
#        24877
#        40795
#        64617
#        87272
#        107292
#        131242
#        164047
#        183955
#        207697
#
# Disc length: 3129 seconds
#
# Revision: 3
# Processed by: cddbd v1.5.2PL0 Copyright (c) Steve Scherf et al.
# Submitted via: ExactAudioCopy v1.3
#
DISCID=830c370a
DTITLE=Grady Harrell - Come Play With Me
DYEAR=1989
DGENRE=Funk
TTITLE0=Fun
TTITLE1=You and Me
TTITLE2=Sticks and Stones
TTITLE3=About Face
TTITLE4=After All
TTITLE5=Surrender
TTITLE6=Love's Destination
TTITLE7=If Ever
TTITLE8=Put This On Your Hand
TTITLE9=Come Play With Me
EXTD=
EXTT0=
EXTT1=
EXTT2=
EXTT3=
EXTT4=
EXTT5=
EXTT6=
EXTT7=
EXTT8=
EXTT9=
PLAYORDER=
